<svg width="115" height="115" viewBox="0 0 115 115" fill="none" xmlns="http://www.w3.org/2000/svg">
<rect width="115" height="115" rx="20" fill="#07636B"/>
<path d="M42.0198 92.4338C34.3851 92.4338 28.1299 86.4278 28.1299 79.0332V71.9509C28.1299 70.5275 29.2206 69.3472 30.5358 69.3472C31.851 69.3472 32.9417 70.5275 32.9417 71.9509C32.9417 76.2905 36.8231 79.5539 42.0198 79.5539C47.2165 79.5539 51.0981 76.2905 51.0981 71.9509C51.0981 70.5275 52.1887 69.3472 53.5039 69.3472C54.8191 69.3472 55.9098 70.5275 55.9098 71.9509V79.0332C55.9098 86.4278 49.6866 92.4338 42.0198 92.4338ZM33.7756 82.4354C35.187 85.2822 38.3628 87.2263 42.0198 87.2263C45.6767 87.2263 48.8526 85.2475 50.264 82.4354C47.9864 83.9282 45.1635 84.7962 42.0198 84.7962C38.8761 84.7962 36.0531 83.9282 33.7756 82.4354Z" fill="white"/>
<path d="M42.0198 75.2482C36.7589 75.2482 32.0434 72.6444 29.7017 68.5131C28.6752 66.7078 28.1299 64.5901 28.1299 62.4377C28.1299 58.7924 29.6055 55.3902 32.3001 52.8558C37.4968 47.9261 46.4467 47.9263 51.6754 52.8215C54.37 55.3905 55.8777 58.7924 55.8777 62.4377C55.8777 64.5901 55.3324 66.7078 54.3059 68.5131C51.9962 72.6444 47.2807 75.2482 42.0198 75.2482ZM42.0198 54.2445C39.5177 54.2445 37.2081 55.1471 35.4758 56.7788C33.8398 58.3064 32.9417 60.3199 32.9417 62.4377C32.9417 63.6528 33.2303 64.764 33.8077 65.8055C35.2833 68.444 38.427 70.0754 42.0198 70.0754C45.6126 70.0754 48.7563 68.444 50.1998 65.8403C50.7772 64.8335 51.066 63.6875 51.066 62.4724C51.066 60.3547 50.1678 58.3411 48.5318 56.7788C46.8317 55.1471 44.5219 54.2445 42.0198 54.2445Z" fill="white"/>
<path d="M42.0198 84.7964C34.0964 84.7964 28.1299 79.2764 28.1299 71.9859V62.4388C28.1299 55.0441 34.353 49.0381 42.0198 49.0381C45.6447 49.0381 49.1092 50.392 51.7075 52.8222C54.4021 55.3913 55.9098 58.7935 55.9098 62.4388V71.9859C55.9098 79.2764 49.9432 84.7964 42.0198 84.7964ZM42.0198 54.2456C37.0155 54.2456 32.9417 57.9256 32.9417 62.4388V71.9859C32.9417 76.3255 36.8231 79.5889 42.0198 79.5889C47.2165 79.5889 51.0981 76.3255 51.0981 71.9859V62.4388C51.0981 60.321 50.2 58.3075 48.5639 56.7452C46.8317 55.1482 44.5219 54.2456 42.0198 54.2456Z" fill="white"/>
<path d="M80.0984 64.8345C75.2545 64.8345 71.1484 60.9462 70.7635 55.947C70.5069 53.0655 71.4692 50.2534 73.3939 48.2051C74.9979 46.3998 77.2754 45.3931 79.6813 45.3931H86.3858C89.5615 45.4972 91.9995 48.2051 91.9995 51.5379V58.6896C91.9995 62.0224 89.5615 64.7303 86.482 64.8345H80.0984ZM86.2895 50.6006H79.7134C78.5907 50.6006 77.5641 51.0519 76.8263 51.8851C75.8961 52.8572 75.447 54.1764 75.5753 55.4957C75.7357 57.787 77.7887 59.627 80.0984 59.627H86.3858C86.8028 59.627 87.1877 59.2104 87.1877 58.6896V51.5379C87.1877 51.0172 86.8028 50.6353 86.2895 50.6006Z" fill="white"/>
<path d="M70.3479 87.2261H62.3283C61.013 87.2261 59.9224 86.0457 59.9224 84.6223C59.9224 83.1989 61.013 82.0186 62.3283 82.0186H70.3479C78.6242 82.0186 83.9813 76.2209 83.9813 67.2639V64.8338H80.0998C75.2559 64.8338 71.1499 60.9455 70.7649 55.9463C70.5083 53.0648 71.471 50.2527 73.3957 48.2044C74.9996 46.3992 77.2769 45.3924 79.6828 45.3924H83.9492V42.9622C83.9492 34.8384 79.5548 29.249 72.4333 28.3463C71.6634 28.2075 70.9895 28.2075 70.3158 28.2075H41.4452C40.6753 28.2075 39.9375 28.2769 39.1997 28.3811C32.1424 29.3531 27.8118 34.9079 27.8118 42.9622V49.9055C27.8118 51.3289 26.7211 52.5093 25.4059 52.5093C24.0907 52.5093 23 51.3289 23 49.9055V42.9622C23 32.2694 29.0951 24.5276 38.5582 23.2431C39.4244 23.1042 40.4187 23 41.4452 23H70.3158C71.0857 23 72.0802 23.0347 73.1067 23.2083C82.5699 24.3887 88.761 32.1652 88.761 42.9622V47.9961C88.761 49.4195 87.6703 50.5999 86.3551 50.5999H79.6828C78.56 50.5999 77.5338 51.0512 76.796 51.8844C75.8657 52.8565 75.4163 54.1757 75.5446 55.4949C75.705 57.7862 77.7584 59.6262 80.068 59.6262H86.3872C87.7024 59.6262 88.7931 60.8066 88.7931 62.23V67.2639C88.7931 79.2065 81.3829 87.2261 70.3479 87.2261Z" fill="white"/>
</svg>
