<svg width="1440" height="1024" viewBox="0 0 1440 1024" fill="none" xmlns="http://www.w3.org/2000/svg">
<path d="M1047.41 402.258C1047.41 402.258 1047.53 401.771 1047.76 400.906L1047.96 401.956L1047.41 402.258Z" fill="#243747"/>
<path d="M-13.0121 476.394C-13.0121 476.394 561.664 455.748 741.934 460.662C922.205 465.578 1461.02 441 1461.02 441L1467 616L-16 528.498L-13.0121 476.394" fill="#638B66"/>
<path d="M1465.53 456.541C1465.53 456.541 1208.53 468.535 1071.46 472.818C934.392 477.103 841.016 489.097 841.016 489.097C841.016 489.097 1110.01 480.531 1189.68 481.386C1269.35 482.24 1400.42 466.822 1400.42 466.822C1400.42 466.822 1149.41 494.236 1113.43 494.236C1077.45 494.236 1042.33 498.519 1042.33 498.519C1042.33 498.519 1194.82 507.085 1217.95 502.802C1241.08 498.519 1391 482.24 1391 482.24L1463.82 484.812L1465.53 456.541Z" fill="#527B55"/>
<path d="M-16.1133 494.187C-16.1133 494.187 457.005 491.247 595.12 491.247C733.235 491.247 1234.76 496.147 1462.99 581.365C1462.01 744.948 1462.99 1477.18 1462.99 1477.18H12.2937L-16.1133 494.187Z" fill="#A9CDC2"/>
<path d="M1184.96 526.65C1184.96 526.65 1258.31 620.16 1450.82 669.665C1496.66 686.165 1496.66 686.165 1496.66 686.165L1470.99 550.486L1184.96 526.65Z" fill="#7EAEAA"/>
<path d="M960.887 621.334C960.887 621.334 922.777 695.332 722.928 733.836C523.078 772.341 -4.9668 772.341 -4.9668 772.341L0.534814 664.162L960.887 621.334" fill="#7EAEAA"/>
<path d="M1489.32 913.519C1489.32 913.519 1087.79 931.852 862.269 992.357C721.317 1030.17 634.798 1021.43 540.49 1012.7C483.908 1007.45 424.522 1002.21 348.894 1007.02C147.21 1019.86 -8.63574 997.858 -8.63574 997.858L-4.96846 1263.71L711.925 1384.72L1465.25 1169.45L1489.32 913.519" fill="#7EAEAA"/>
<path d="M277.387 766.843C277.387 766.843 1010.78 744.839 1032.78 781.511C1054.79 818.181 363.561 827.346 369.062 853.017C374.562 878.683 755.928 865.851 763.26 906.186C770.596 946.524 -6.80438 939.191 -6.80438 939.191L-19.6387 772.342L277.387 766.843Z" fill="white"/>
<path d="M24.365 900.685C24.365 900.685 339.725 887.852 356.227 911.689C372.728 935.521 -173.652 961.19 24.365 900.685" fill="#A9CDC2"/>
<path d="M284.163 784.401C284.163 784.401 528.68 774.451 541.474 792.933C554.268 811.414 130.629 831.316 284.163 784.401" fill="#A9CDC2"/>
<path d="M817.735 523.503C817.735 523.503 1071.18 527.913 1203.42 545.543C1088.82 548.846 937.848 548.846 937.848 548.846C937.848 548.846 1206.72 557.662 1288.27 564.275C1172.56 566.479 908.094 562.071 904.79 563.172C965.394 556.563 1001.76 555.459 1001.76 555.459L864.017 549.95L1012.78 536.727L817.735 523.503Z" fill="white"/>
<path d="M1532 989.952C1532 989.952 903.693 1009.51 480.746 1315.11C478.303 1469.13 478.303 1469.13 478.303 1469.13L1463.55 1466.68L1532 989.952" fill="#688429"/>
<path d="M160.87 1428.95C192.415 1376.37 234.529 1349.87 258.885 1338.1C261.995 1320.8 264.172 1302.41 264.923 1283.17C241.366 1311.68 189.054 1372.43 138.901 1413.26C142.699 1407.55 230.188 1284.49 263.898 1237.07C262.973 1226.11 261.527 1214.94 259.495 1203.61C249.903 1223.56 228.755 1262.07 189.902 1308.89C196.193 1220.27 234.561 1191.24 254.916 1182.01C251.789 1169.16 247.89 1156.15 243.079 1143C204.195 1178.36 170.673 1268.51 139.684 1334.01C154.2 1276.61 213.088 1153.2 231.466 1115.38C226.807 1105.85 221.733 1097.04 216.302 1088.89C209.662 1133.38 174.397 1225.05 151.452 1256.33L198.394 1065.68C195.012 1061.89 191.545 1058.29 187.997 1054.86C181.39 1083.66 146.935 1232.7 127.132 1296.35C127.132 1278.93 167.926 1087.83 177.097 1045.09C173.744 1042.3 170.333 1039.64 166.873 1037.13C164.257 1053.53 158.507 1083.48 147.532 1115.89C138.624 1080.78 147.909 1047.44 155.062 1029.16C140.236 1019.88 124.731 1012.82 109.124 1007.49C115.872 1047.81 130.385 1148.03 122.424 1223.38C121.188 1168.97 99.0128 1049.83 89.6585 1001.71C78.6926 998.929 67.7944 996.899 57.1657 995.484C66.9618 1025.53 81.8982 1077.22 92.6097 1140.99C75.4081 1085.82 43.861 1021.26 29.4869 993.027C22.6734 992.708 16.0677 992.602 9.73413 992.664C65.9532 1082.96 112.879 1233.54 110.654 1356.76C77.9839 1264.19 0.435373 1049.4 -19.5409 994.103C-45.3086 996.386 -61.9614 1000.55 -61.9614 1000.55L-61.5184 1023.5C-26.9084 1081.29 36.4594 1195.08 69.0699 1303.41C41.5422 1252.1 -31.894 1124.95 -60.5119 1075.55L-58.9894 1154.32C-38.3058 1179.94 -4.38713 1225.87 21.9936 1280.66C4.08192 1243.29 -33.8582 1215.95 -58.0793 1201.46L-52.5462 1487.78H201.666C201.666 1487.78 225.298 1453.14 243.741 1397.48C219.581 1408.5 188.026 1421.65 160.87 1428.95" fill="#334D20"/>
<path d="M-12.832 508.802C-12.832 508.802 636.59 505.735 775.719 531.307C914.85 556.885 960.886 621.334 960.886 621.334L723.546 647.93C723.546 647.93 548.61 661.231 545.542 661.231C542.474 661.231 427.895 665.324 427.895 665.324L-9.76368 689.876L-12.832 508.802Z" fill="#688429"/>
<path d="M1481.6 126.19C1481.6 126.19 1328.15 71.971 1306.67 82.2022C1285.19 92.4301 1472.4 167.112 1472.4 167.112L1481.6 126.19Z" fill="white"/>
<path d="M1469.95 101.248L1470.35 81.1761C1470.35 81.1761 1299.51 49.4647 1295.41 54.5786C1292.18 71.5496 1417.26 92.9904 1469.95 101.248Z" fill="white"/>
<path d="M876.933 561.973C874.49 563.17 872.869 565.06 872.814 567.983C872.576 580.601 880.434 587.743 857.097 587.743C833.758 587.743 864.24 602.036 832.329 601.798C800.421 601.556 830.185 624.419 788.514 625.134C746.839 625.848 750.651 650.376 693.258 637.278C635.868 624.181 560.857 630.133 537.042 640.372C517.467 648.793 467.64 660.587 450.528 664.518C484.085 663.326 543.346 661.231 545.543 661.231C548.611 661.231 723.546 647.929 723.546 647.929L865.591 632.014L960.887 621.334C960.887 621.334 938.289 589.706 876.933 561.973" fill="#2D465F"/>
<path d="M866.144 634.656C866.144 634.656 858.049 597.032 882.815 597.032C907.578 597.032 918.772 632.038 918.772 632.038L866.144 634.656" fill="#24394B"/>
<path d="M909.836 636.53C909.836 636.53 904.123 608.906 927.695 610.097C951.272 611.287 955.205 633.282 955.205 633.282C955.205 633.282 911.265 635.577 909.836 636.53Z" fill="#3C5B75"/>
<path d="M777.56 653.71C777.56 653.71 784.704 624.181 817.088 626.086C849.476 627.989 854.001 648.707 854.001 648.707L777.56 653.71Z" fill="#24394B"/>
<path d="M815.424 654.421C815.424 654.421 831.853 638.944 841.379 636.564C850.904 634.179 870.67 643.946 870.67 643.946L883.531 651.089L815.424 654.421Z" fill="#3C5B75"/>
<path d="M653.491 659.901C653.491 659.901 670.397 639.896 678.017 639.182C685.639 638.467 719.929 645.612 719.929 645.612L732.076 658.949L653.491 659.901" fill="#24394B"/>
<path d="M627.057 661.09C627.057 661.09 638.247 646.564 646.346 645.135C654.44 643.708 686.829 663.948 686.829 663.948L627.057 661.09Z" fill="#3C5B75"/>
<path d="M511.323 664.666C511.323 664.666 508.229 635.132 535.853 634.421C563.475 633.706 591.337 663.233 591.337 663.233L511.323 664.666Z" fill="#24394B"/>
<path d="M473.696 669.428C473.696 669.428 486.557 648.474 496.32 647.756C506.084 647.044 517.99 667.284 517.99 667.284C517.99 667.284 472.03 669.189 473.696 669.428" fill="#3C5B75"/>
<path d="M931.959 629.711C931.959 629.711 941.716 607.942 948.868 607.325C982.755 604.4 978.496 627.56 978.496 627.56L931.959 629.711" fill="#24394B"/>
<path d="M937.148 530.875C937.148 530.875 942.675 520.51 957.534 520.51C972.392 520.51 968.245 531.567 968.245 531.567L937.148 530.875Z" fill="#24394B"/>
<path d="M653.255 497.293C653.255 497.293 739.563 491.404 738.384 483.743C737.207 476.085 405.822 464.302 405.822 464.302L433.453 462.199C433.453 462.199 640.589 471.96 681.239 474.612C721.888 477.26 772.261 478.735 772.261 483.743C772.261 488.752 724.54 496.703 724.54 496.703" fill="#A9CDC2"/>
<path d="M1200.8 15.3154C1200.8 15.3154 741.8 2.03815 573.942 -29.2586C573.942 -29.2586 575.837 -52.9694 627.049 -43.4782C678.261 -34.0042 696.28 -94.7031 768.355 -72.8769C840.429 -51.0678 884.052 1.09076 970.352 -21.6709C1056.65 -44.4376 1065.19 1.0907 1200.8 15.3154" fill="white"/>
<path d="M803.298 190.297C803.298 190.297 627.446 185.212 563.137 173.221C563.137 173.221 563.864 164.14 583.483 167.772C603.103 171.404 610.007 148.15 637.619 156.509C665.232 164.866 681.946 184.849 715.008 176.127C748.071 167.408 751.343 184.849 803.298 190.297" fill="white"/>
<path d="M722.155 105.032C722.155 105.032 154.094 55.7196 -101.961 -56.1903C-87.7354 -101.71 -16.6098 -45.7569 33.652 -78.9416C83.9143 -112.143 173.06 -141.542 273.585 -43.8552C374.111 53.8231 441.443 -3.07924 488.86 50.9758C536.278 105.032 633.961 56.6669 722.155 105.032" fill="white"/>
<path d="M861.16 393.359C861.16 393.359 163.396 387.051 -158.52 281.701C-144.903 228.418 -53.4318 286.105 5.20928 243.746C63.8496 201.367 170.286 159.909 301.102 262.708C431.917 365.496 509.447 294.523 571.809 352.13C634.173 409.739 749.472 345.849 861.16 393.359" fill="white"/>
<path d="M-177 -34.3299C-177 -34.3299 14.1647 50.5371 242.849 102.346C-44.7928 66.6155 -177 -34.3299 -177 -34.3299Z" fill="white"/>
<path d="M1468.22 478.704C1468.22 478.704 1266.78 474.209 1176.25 526.386C1310.66 543.318 1464.08 583.744 1464.08 583.744L1468.22 478.704" fill="#2D465F"/>
<path d="M1345.56 564.046C1345.56 564.046 1359.39 549.189 1372.86 548.845C1386.33 548.499 1395.67 566.121 1395.67 566.121L1345.56 564.046" fill="#3C5B75"/>
<path d="M1276.8 582.362C1276.8 582.362 1286.13 555.752 1296.5 556.098C1306.86 556.446 1311.01 582.362 1311.01 582.362H1276.8" fill="#24394B"/>
<path d="M1304.79 572.34C1304.79 572.34 1315.15 569.92 1317.23 582.708C1304.79 582.708 1299.61 582.708 1299.61 582.708C1299.61 582.708 1298.57 575.795 1304.79 572.34" fill="#3C5B75"/>
<path d="M1139.97 522.24C1139.97 522.24 1147.58 507.037 1160.01 506.343C1172.45 505.651 1177.29 521.891 1177.29 521.891L1139.97 522.24Z" fill="#24394B"/>
<path d="M1165.2 533.64C1165.2 533.64 1166.93 526.038 1174.87 526.038C1182.82 526.038 1184.55 533.64 1184.55 533.64H1165.2Z" fill="#24394B"/>
<path d="M1185.24 491.833C1185.24 491.833 1179.02 474.557 1196.64 473.52C1214.26 472.484 1216.34 491.833 1227.05 485.614C1237.76 479.395 1249.51 482.158 1255.38 486.306C1261.26 490.448 1261.26 476.974 1274.73 487.341C1246.05 489.415 1185.24 491.833 1185.24 491.833Z" fill="#396B39"/>
<path d="M1213.16 509.926C1216.11 510.584 1219.53 512.61 1222.9 517.4C1231.88 530.184 1269.2 504.964 1274.73 519.477C1280.26 533.988 1312.39 509.799 1318.96 526.73C1325.52 543.66 1289.93 545.735 1351.78 545.387C1413.63 545.043 1418.47 539.86 1410.18 550.916C1401.88 561.975 1433.67 541.243 1458.2 554.37C1460.73 555.725 1463.02 556.689 1465.12 557.354L1468.22 478.704C1468.22 478.704 1312.3 475.228 1213.16 509.926" fill="#62902D"/>
<path d="M149.706 797.233C149.706 797.233 244.374 742.764 257.343 744.061C270.31 745.358 337.745 779.077 337.745 779.077L349.417 820.572L139.33 830.949C139.33 830.949 128.957 811.496 149.706 797.233Z" fill="#3C5B75"/>
<path d="M381.215 832.577C381.215 832.577 -4.96758 937.353 136.212 823.678C277.39 798.008 381.215 832.577 381.215 832.577Z" fill="#7EAEAA"/>
<path d="M280.407 833.002C280.407 831.3 293.165 803.653 308.48 798.972C323.792 794.294 351.865 785.363 365.476 807.48C379.089 829.598 381.216 832.577 381.216 832.577L280.407 833.002" fill="#24394B"/>
<path d="M1384.15 471.185C1384.15 471.185 1388.56 452.121 1403.68 455.376C1418.79 458.631 1412.74 465.605 1429.02 460.258C1445.3 454.91 1452.97 467.464 1452.97 467.464L1384.15 471.185" fill="#396B39"/>
<path d="M998.419 475.835C998.419 475.835 1003.07 462.814 1017.48 462.581C1031.9 462.348 1032.36 476.998 1046.32 469.091C1060.27 461.187 1080.03 473.277 1080.03 473.277L998.419 475.835" fill="#396B39"/>
<path d="M955.638 481.415C955.638 481.415 963.077 468.161 977.725 468.859C992.373 469.558 1002.37 484.67 1002.37 484.67L954.242 485.367L955.638 481.415Z" fill="#396B39"/>
<path d="M1088.4 481.881C1088.4 481.881 1093.28 465.604 1104.91 467.233C1116.53 468.86 1122.35 480.022 1122.35 480.022L1088.4 481.881" fill="#396B39"/>
<path d="M375.622 476.551C375.622 476.551 607.062 478.996 644.547 480.625C682.033 482.256 447.335 499.369 375.622 476.551" fill="#527B55"/>
<path d="M683.663 464.327C683.663 464.327 930.587 460.253 946.07 462.698C886.58 472.479 735.816 480.628 680.402 464.327" fill="#527B55"/>
<path d="M51.2832 485.516C51.2832 485.516 294.13 473.294 371.548 487.959C319.393 489.592 51.2832 485.516 51.2832 485.516" fill="#527B55"/>
<path d="M0 640.212V612.143C50.1969 611.637 302.711 608.967 302.711 608.967L0 640.212ZM0 611.987V552.842C115.29 546.75 325.671 537 491.351 537C571.709 537 641.507 539.291 684.912 545.403C434.728 547.848 36.2308 577.999 40.3057 577.999C44.38 577.999 464.881 571.48 470.587 571.48C337.079 601.555 53.0188 610.5 0 611.987Z" fill="#9B9921"/>
<path d="M548.388 622.425L766.787 607.755C766.787 607.755 757.618 607.972 742.202 607.972C697.88 607.972 601.937 606.177 523.938 592.272C545.487 588.145 578.622 586.664 615.151 586.664C708.476 586.664 823.831 596.347 823.831 596.347C818.942 611.83 548.388 622.425 548.388 622.425" fill="#9B9921"/>
<path d="M114.033 680.283L438.372 631.389C409.85 670.503 245.235 670.503 114.033 680.283Z" fill="#9B9921"/>
<path d="M1495.22 488.194C1495.22 488.194 1370.03 493.607 1324.89 503.839C1397.12 502.035 1475.96 514.675 1475.96 514.675L1359.2 518.886L1489.19 542.358L1496.42 489.998" fill="#5D7F2A"/>
<path d="M610.366 597.042C610.202 595.634 610.075 593.82 610.118 591.668C613.164 592.62 617.406 593.545 621.983 593.326C621.56 593.186 614.882 589.495 610.44 587.03L610.483 586.67C615.602 588.916 624.918 592.672 633.945 594.601C624.377 592.286 615.583 582.769 612.168 578.678C612.247 578.404 612.33 578.132 612.415 577.852C613.16 575.457 614.096 573.292 615.275 571.356C617.587 574.34 623.882 582.118 631.075 588.243C631.308 582.209 623.988 571.332 620.012 565.886C621.315 564.82 622.783 563.88 624.437 563.061C626.421 568.653 633.109 582.86 650.693 585.908C642.902 581.55 631.831 565.747 628.824 561.317C629.854 560.993 630.937 560.702 632.079 560.446C633.26 563.455 637.644 572.545 650.056 581.138C650.604 577.597 640.609 563.472 637.736 559.502C638.569 559.405 639.426 559.319 640.308 559.249C641.769 561.752 646.563 569.804 652.127 577.644C651.242 574.865 647.037 563.537 645.345 558.987C646.761 558.947 648.1 558.827 649.366 558.641C650.28 563.669 652.497 578.166 657.073 586.333C656.114 580.503 659.943 576.475 660.102 570.542C660.234 565.694 654.73 559.932 652.703 557.978C655.172 557.357 657.375 556.499 659.453 555.564C659.814 557.212 660.918 561.466 663.292 565.456C665.53 562.55 663.75 557.539 662.163 554.284C665.605 552.6 668.857 550.892 672.631 549.95C671.803 554.597 669.419 564.635 663.292 573.402C654.999 585.274 660.743 586.437 660.743 586.437C660.743 586.437 660.102 579.23 669.196 573.614C677.647 568.394 678.377 558.403 676.77 549.276C679.263 549.088 682.026 549.263 685.202 549.96C684.13 553.03 680.126 565.492 680.679 578.915C691.515 573.838 690.561 558.087 689.562 551.171C691.459 551.8 693.484 552.595 695.673 553.585L695.833 553.659C694.86 557.15 693.102 563.504 691.205 570.647C696.331 567.368 699.143 560.972 700.575 556.331C701.507 556.974 702.377 557.645 703.182 558.353C699.722 564.037 693.869 574.056 691.363 580.715C696.902 575.087 703.623 567.347 707.351 562.98C709.124 565.495 710.383 568.216 711.245 571.001C703.845 575.747 688.714 586.299 679.244 598.731C688.627 595.615 703.91 584.508 712.627 577.806C712.745 578.892 712.819 579.973 712.855 581.039C705.339 584.995 694.212 591.692 692.96 597.249C699.288 592.459 707.066 588.541 712.775 585.989C712.24 594.412 709.864 600.957 709.864 600.957L617.589 600.462C616.117 599.144 612.996 597.914 610.366 597.042" fill="#CFAB16"/>
<path d="M450.74 638.985C450.65 638.216 450.583 637.222 450.603 636.04C452.274 636.564 454.597 637.071 457.108 636.95C456.874 636.874 453.214 634.851 450.782 633.499L450.806 633.304C453.608 634.534 458.715 636.59 463.661 637.649C458.417 636.382 453.6 631.166 451.729 628.923L451.864 628.471C452.27 627.157 452.784 625.971 453.43 624.909C454.698 626.545 458.148 630.808 462.089 634.164C462.217 630.859 458.205 624.897 456.026 621.913C456.74 621.329 457.545 620.813 458.452 620.364C459.538 623.429 463.204 631.214 472.839 632.886C468.57 630.494 462.503 621.837 460.857 619.41C461.421 619.233 462.013 619.072 462.639 618.932C463.288 620.578 465.69 625.564 472.49 630.271C472.789 628.33 467.312 620.588 465.74 618.414C466.194 618.361 466.663 618.315 467.148 618.276C467.95 619.646 470.578 624.059 473.625 628.354C473.141 626.831 470.835 620.624 469.908 618.133C470.687 618.111 471.417 618.044 472.113 617.943C472.613 620.698 473.828 628.644 476.336 633.119C475.811 629.925 477.908 627.715 477.996 624.464C478.068 621.808 475.051 618.651 473.941 617.58C475.294 617.237 476.502 616.77 477.639 616.257C477.838 617.157 478.443 619.487 479.745 621.676C480.97 620.083 479.993 617.337 479.125 615.555C481.011 614.632 482.793 613.696 484.861 613.179C484.407 615.725 483.101 621.227 479.745 626.033C475.2 632.538 478.347 633.175 478.347 633.175C478.347 633.175 477.996 629.225 482.978 626.15C487.61 623.285 488.009 617.811 487.131 612.809C488.496 612.708 490.009 612.802 491.749 613.184C491.165 614.868 488.967 621.699 489.272 629.052C495.21 626.271 494.688 617.64 494.141 613.849C495.177 614.195 496.288 614.63 497.489 615.171L497.576 615.212C497.041 617.126 496.079 620.607 495.039 624.524C497.848 622.726 499.387 619.221 500.175 616.677C500.685 617.027 501.162 617.398 501.602 617.786C499.705 620.898 496.5 626.389 495.128 630.037C498.162 626.956 501.845 622.711 503.887 620.319C504.859 621.699 505.549 623.187 506.022 624.716C501.965 627.318 493.675 633.1 488.484 639.913C493.627 638.204 502.001 632.118 506.779 628.444C506.843 629.04 506.884 629.632 506.904 630.215C502.786 632.386 496.689 636.054 496.002 639.1C499.467 636.475 503.732 634.328 506.862 632.929C506.567 637.546 505.267 641.133 505.267 641.133L454.7 640.861C453.893 640.138 452.181 639.463 450.74 638.985" fill="#CFAB16"/>
<path d="M48.7335 645.12C48.5421 643.477 48.3961 641.361 48.4436 638.849C51.9992 639.96 56.9474 641.041 62.2906 640.785C61.7953 640.623 54.0023 636.317 48.8198 633.439L48.8712 633.019C54.8434 635.639 65.7122 640.02 76.2444 642.269C65.0819 639.576 54.8227 628.471 50.8361 623.698C50.9291 623.377 51.0256 623.059 51.1253 622.733C51.9932 619.936 53.086 617.412 54.4605 615.152C57.1595 618.632 64.5037 627.708 72.8956 634.851C73.1673 627.818 64.6274 615.125 59.9863 608.772C61.5088 607.53 63.222 606.43 65.1514 605.476C67.4643 612 75.2688 628.575 95.7837 632.13C86.6922 627.045 73.7769 608.61 70.2696 603.443C71.4702 603.062 72.7344 602.726 74.0661 602.427C75.444 605.932 80.5583 616.542 95.0388 626.567C95.6759 622.433 84.0174 605.954 80.6679 601.327C81.6369 601.21 82.6349 601.113 83.664 601.027C85.3705 603.946 90.9653 613.343 97.4566 622.488C96.4227 619.245 91.5173 606.03 89.5397 600.722C91.1968 600.678 92.7554 600.535 94.2331 600.321C95.3004 606.184 97.8897 623.1 103.225 632.629C102.109 625.826 106.576 621.125 106.761 614.202C106.913 608.55 100.491 601.825 98.1306 599.55C101.007 598.819 103.578 597.822 106 596.73C106.424 598.649 107.711 603.611 110.481 608.269C113.091 604.88 111.014 599.033 109.165 595.235C113.18 593.271 116.973 591.279 121.377 590.176C120.409 595.6 117.627 607.313 110.481 617.542C100.806 631.392 107.506 632.749 107.506 632.749C107.506 632.749 106.761 624.342 117.369 617.786C127.23 611.695 128.081 600.042 126.205 589.394C129.114 589.175 132.335 589.377 136.044 590.191C134.794 593.772 130.118 608.313 130.764 623.972C143.409 618.049 142.294 599.672 141.131 591.604C143.341 592.341 145.705 593.266 148.258 594.419L148.444 594.508C147.308 598.582 145.258 605.995 143.044 614.328C149.027 610.499 152.304 603.038 153.976 597.626C155.064 598.373 156.078 599.158 157.019 599.982C152.981 606.615 146.155 618.301 143.231 626.072C149.693 619.507 157.533 610.475 161.881 605.38C163.951 608.318 165.417 611.488 166.424 614.741C157.792 620.275 140.14 632.586 129.089 647.095C140.038 643.453 157.869 630.498 168.037 622.678C168.174 623.948 168.261 625.204 168.304 626.449C159.536 631.066 146.556 638.879 145.093 645.36C152.474 639.775 161.55 635.204 168.211 632.219C167.584 642.051 164.816 649.689 164.816 649.689L57.1643 649.113C55.4444 647.575 51.8018 646.134 48.7335 645.12" fill="#CFAB16"/>
<path d="M59.6139 519.854C59.4988 518.882 59.4138 517.628 59.4412 516.145C61.5466 516.799 64.4758 517.442 67.6397 517.287C67.3459 517.193 62.7331 514.644 59.6641 512.939L59.6954 512.693C63.231 514.243 69.6654 516.837 75.9027 518.168C69.2921 516.573 63.2183 509.998 60.8572 507.169C60.9128 506.981 60.9704 506.792 61.0299 506.599C61.5431 504.944 62.1911 503.452 63.0035 502.114C64.6029 504.173 68.9509 509.545 73.9185 513.775C74.0804 509.612 69.0237 502.096 66.2752 498.332C67.1773 497.599 68.1919 496.948 69.3343 496.385C70.7021 500.248 75.3252 510.059 87.4714 512.163C82.0882 509.151 74.441 498.238 72.3651 495.179C73.0766 494.956 73.8234 494.755 74.6123 494.577C75.4268 496.654 78.4564 502.934 87.0298 508.87C87.4086 506.426 80.5042 496.664 78.5213 493.926C79.0949 493.858 79.6858 493.798 80.2953 493.748C81.3066 495.477 84.6179 501.041 88.4618 506.457C87.8502 504.534 84.9445 496.71 83.7747 493.57C84.7552 493.542 85.6786 493.457 86.554 493.332C87.185 496.799 88.7169 506.818 91.8783 512.46C91.2158 508.432 93.8612 505.65 93.9715 501.548C94.0606 498.201 90.2581 494.223 88.8602 492.873C90.5639 492.441 92.0858 491.851 93.5199 491.206C93.7716 492.34 94.5324 495.276 96.1747 498.036C97.7179 496.03 96.4892 492.568 95.3943 490.318C97.7714 489.155 100.017 487.978 102.625 487.323C102.052 490.536 100.405 497.471 96.1747 503.527C90.4454 511.725 94.412 512.532 94.412 512.532C94.412 512.532 93.9715 507.551 100.25 503.673C106.09 500.065 106.594 493.165 105.484 486.861C107.205 486.731 109.113 486.849 111.309 487.334C110.569 489.453 107.8 498.06 108.184 507.334C115.669 503.828 115.01 492.946 114.321 488.172C115.628 488.603 117.03 489.151 118.541 489.835L118.652 489.888C117.979 492.3 116.766 496.691 115.455 501.624C118.996 499.359 120.936 494.939 121.928 491.735C122.572 492.177 123.171 492.64 123.728 493.128C121.337 497.054 117.295 503.978 115.565 508.577C119.39 504.689 124.033 499.343 126.606 496.326C127.833 498.065 128.702 499.943 129.298 501.867C124.186 505.148 113.735 512.434 107.191 521.024C113.673 518.87 124.232 511.199 130.252 506.568C130.333 507.318 130.384 508.065 130.408 508.8C125.219 511.533 117.533 516.158 116.666 519.998C121.037 516.691 126.409 513.984 130.355 512.218C129.985 518.038 128.345 522.561 128.345 522.561L64.6043 522.22C63.587 521.308 61.4294 520.457 59.6139 519.854" fill="#405521"/>
<path d="M126.7 545.601C126.615 544.861 126.548 543.905 126.57 542.776C128.174 543.277 130.404 543.765 132.813 543.648C132.59 543.575 129.078 541.632 126.74 540.337L126.764 540.145C129.455 541.325 134.357 543.304 139.106 544.317C134.072 543.102 129.447 538.094 127.65 535.946L127.78 535.506C128.172 534.246 128.664 533.107 129.284 532.093C130.502 533.659 133.812 537.753 137.596 540.971C137.718 537.801 133.867 532.077 131.775 529.213C132.462 528.653 133.235 528.159 134.105 527.726C135.147 530.669 138.667 538.141 147.917 539.744C143.817 537.452 137.992 529.139 136.413 526.811C136.954 526.638 137.523 526.486 138.122 526.352C138.744 527.933 141.05 532.717 147.579 537.238C147.867 535.375 142.609 527.94 141.102 525.853C141.538 525.804 141.987 525.759 142.452 525.723C143.221 527.036 145.743 531.274 148.671 535.398C148.205 533.936 145.993 527.978 145.1 525.584C145.847 525.566 146.551 525.499 147.216 525.405C147.697 528.045 148.866 535.675 151.273 539.97C150.768 536.904 152.782 534.784 152.866 531.663C152.935 529.114 150.038 526.083 148.974 525.055C150.271 524.726 151.429 524.277 152.522 523.784C152.712 524.649 153.295 526.887 154.543 528.985C155.72 527.459 154.783 524.82 153.949 523.109C155.76 522.225 157.47 521.325 159.457 520.827C159.02 523.273 157.766 528.553 154.543 533.167C150.18 539.412 153.202 540.023 153.202 540.023C153.202 540.023 152.866 536.232 157.648 533.277C162.095 530.53 162.479 525.278 161.633 520.476C162.945 520.376 164.396 520.469 166.068 520.835C165.506 522.451 163.397 529.007 163.689 536.069C169.39 533.397 168.886 525.11 168.364 521.474C169.359 521.805 170.425 522.221 171.576 522.742L171.662 522.782C171.148 524.62 170.224 527.962 169.227 531.718C171.922 529.992 173.402 526.63 174.156 524.188C174.646 524.522 175.102 524.88 175.527 525.249C173.706 528.24 170.629 533.511 169.31 537.015C172.224 534.056 175.758 529.982 177.72 527.683C178.653 529.009 179.315 530.438 179.767 531.903C175.875 534.402 167.917 539.95 162.933 546.492C167.87 544.851 175.909 539.011 180.495 535.483C180.557 536.057 180.594 536.623 180.615 537.185C176.661 539.266 170.809 542.788 170.151 545.711C173.478 543.193 177.569 541.128 180.574 539.785C180.291 544.219 179.042 547.661 179.042 547.661L130.502 547.402C129.728 546.708 128.083 546.061 126.7 545.601" fill="#405521"/>
<path d="M560.944 601.125C560.846 600.297 560.773 599.235 560.797 597.972C562.583 598.531 565.073 599.072 567.761 598.946C567.511 598.863 563.592 596.696 560.987 595.252L561.012 595.039C564.014 596.357 569.481 598.56 574.776 599.692C569.162 598.334 564.005 592.751 562.001 590.35C562.045 590.191 562.095 590.03 562.145 589.867C562.583 588.461 563.13 587.193 563.822 586.057C565.181 587.805 568.873 592.37 573.092 595.961C573.229 592.423 568.933 586.042 566.601 582.848C567.367 582.223 568.228 581.67 569.198 581.19C570.361 584.469 574.285 592.805 584.603 594.592C580.031 592.034 573.536 582.764 571.771 580.169C572.376 579.979 573.012 579.806 573.68 579.655C574.374 581.419 576.945 586.753 584.228 591.795C584.547 589.716 578.684 581.428 577.002 579.102C577.488 579.045 577.99 578.995 578.508 578.952C579.366 580.421 582.179 585.144 585.443 589.744C584.924 588.113 582.457 581.467 581.463 578.8C582.296 578.776 583.078 578.706 583.822 578.596C584.36 581.544 585.659 590.051 588.345 594.844C587.783 591.421 590.031 589.059 590.121 585.577C590.199 582.733 586.969 579.353 585.782 578.211C587.228 577.844 588.521 577.34 589.739 576.79C589.954 577.757 590.599 580.253 591.994 582.595C593.305 580.888 592.261 577.95 591.331 576.04C593.351 575.051 595.258 574.051 597.471 573.498C596.986 576.225 595.587 582.11 591.994 587.256C587.127 594.221 590.495 594.904 590.495 594.904C590.495 594.904 590.121 590.674 595.455 587.38C600.414 584.316 600.843 578.457 599.899 573.102C601.362 572.992 602.982 573.093 604.846 573.503C604.218 575.305 601.867 582.617 602.193 590.489C608.55 587.512 607.99 578.271 607.406 574.214C608.516 574.582 609.705 575.05 610.988 575.631L611.084 575.673C610.51 577.721 609.481 581.45 608.369 585.641C611.375 583.713 613.024 579.963 613.865 577.243C614.413 577.616 614.922 578.012 615.393 578.428C613.364 581.762 609.931 587.64 608.46 591.546C611.711 588.245 615.653 583.703 617.839 581.139C618.879 582.617 619.618 584.212 620.123 585.848C615.782 588.63 606.907 594.824 601.35 602.118C606.854 600.287 615.821 593.772 620.935 589.842C621.005 590.477 621.05 591.111 621.069 591.736C616.659 594.058 610.133 597.984 609.398 601.243C613.109 598.438 617.671 596.138 621.021 594.639C620.707 599.583 619.316 603.424 619.316 603.424L565.181 603.131C564.317 602.36 562.486 601.635 560.944 601.125" fill="#405521"/>
<path d="M338.329 657.542C338.156 656.161 338.026 654.378 338.067 652.262C341.243 653.196 345.663 654.107 350.434 653.893C349.992 653.756 343.033 650.126 338.403 647.701L338.45 647.349C343.784 649.555 353.491 653.247 362.898 655.142C352.929 652.872 343.765 643.516 340.203 639.494C340.287 639.223 340.374 638.954 340.463 638.681C341.238 636.326 342.214 634.198 343.443 632.295C345.853 635.228 352.411 642.872 359.907 648.892C360.15 642.965 352.521 632.274 348.377 626.917C349.737 625.87 351.267 624.947 352.99 624.14C355.053 629.639 362.028 643.602 380.35 646.6C372.23 642.314 360.693 626.782 357.561 622.428C358.635 622.11 359.763 621.822 360.952 621.57C362.183 624.529 366.751 633.465 379.684 641.909C380.254 638.431 369.84 624.542 366.847 620.641C367.715 620.546 368.606 620.46 369.526 620.391C371.049 622.852 376.045 630.768 381.844 638.474C380.921 635.742 376.538 624.609 374.774 620.136C376.254 620.098 377.645 619.978 378.964 619.795C379.919 624.734 382.23 638.988 386.996 647.02C386 641.287 389.987 637.325 390.153 631.493C390.29 626.727 384.555 621.065 382.446 619.146C385.015 618.533 387.311 617.69 389.473 616.771C389.852 618.39 391.001 622.572 393.477 626.494C395.807 623.636 393.953 618.711 392.302 615.51C395.887 613.857 399.273 612.178 403.21 611.253C402.344 615.819 399.86 625.687 393.477 634.306C384.837 645.976 390.818 647.124 390.818 647.124C390.818 647.124 390.153 640.035 399.627 634.513C408.435 629.38 409.195 619.562 407.52 610.59C410.119 610.405 412.997 610.575 416.307 611.262C415.19 614.279 411.017 626.533 411.592 639.727C422.886 634.736 421.89 619.25 420.852 612.452C422.824 613.072 424.936 613.852 427.215 614.827L427.385 614.897C426.369 618.329 424.537 624.577 422.562 631.599C427.902 628.371 430.828 622.087 432.325 617.525C433.297 618.154 434.201 618.819 435.041 619.512C431.435 625.099 425.336 634.948 422.725 641.495C428.498 635.963 435.502 628.353 439.384 624.059C441.234 626.533 442.543 629.207 443.441 631.947C435.73 636.612 419.966 646.985 410.095 659.209C419.876 656.141 435.8 645.226 444.882 638.639C445.005 639.704 445.082 640.766 445.12 641.813C437.289 645.702 425.697 652.283 424.39 657.749C430.982 653.042 439.087 649.189 445.037 646.679C444.477 654.957 442.007 661.395 442.007 661.395L345.855 660.907C344.322 659.612 341.067 658.4 338.329 657.542" fill="#405521"/>
<path d="M107.506 669.761C107.739 666.787 107.913 662.961 107.858 658.421C103.585 660.431 97.6394 662.382 91.2222 661.923C91.8145 661.627 101.178 653.844 107.405 648.642C107.384 648.389 107.364 648.133 107.342 647.876C100.169 652.617 87.1092 660.537 74.4548 664.608C87.8673 659.728 100.192 639.653 104.983 631.022C104.871 630.446 104.757 629.866 104.635 629.283C103.591 624.224 102.28 619.662 100.628 615.579C97.3843 621.868 88.562 638.279 78.4789 651.19C78.1517 638.471 88.4134 615.526 93.9887 604.037C92.159 601.791 90.1006 599.806 87.7823 598.079C85.0057 609.874 75.6259 639.843 50.9806 646.273C61.9003 637.076 77.4195 603.744 81.6336 594.402C80.1914 593.719 78.673 593.105 77.0715 592.561C75.4173 598.908 69.2711 618.084 51.8748 636.213C51.1084 628.743 65.1185 598.941 69.1406 590.572C67.9754 590.366 66.7755 590.189 65.5401 590.037C63.4891 595.314 56.7694 612.305 48.9676 628.836C50.2104 622.978 56.1041 599.079 58.4792 589.484C56.4889 589.398 54.6166 589.149 52.8417 588.761C51.5595 599.357 48.4509 629.944 42.0372 647.167C43.3797 634.873 38.0131 626.377 37.791 613.857C37.6075 603.635 45.323 591.476 48.1612 587.357C44.704 586.042 41.6156 584.236 38.7045 582.264C38.1952 585.74 36.6512 594.707 33.3185 603.128C30.1832 596.999 32.6781 586.427 34.9012 579.562C30.0782 576.014 25.5221 572.408 20.2307 570.416C21.391 580.225 24.7311 601.399 33.3185 619.893C44.9443 644.931 36.8962 647.393 36.8962 647.393C36.8962 647.393 37.791 632.19 25.0477 620.34C13.1978 609.324 12.1766 588.257 14.4272 569.001C10.9338 568.601 7.06113 568.968 2.60937 570.443C4.11116 576.921 9.72653 603.206 8.95096 631.52C-6.2431 620.815 -4.9032 587.584 -3.50454 572.999C-6.15881 574.325 -9.00152 576.001 -12.0639 578.089L-12.2928 578.247C-10.927 585.608 -8.46289 599.014 -5.80469 614.08C-12.9895 607.162 -16.9278 593.671 -18.9388 583.881C-20.2465 585.235 -21.4637 586.658 -22.5927 588.147C-17.7437 600.136 -9.53964 621.27 -6.02894 635.319C-13.7918 623.448 -23.2112 607.121 -28.4344 597.907C-30.922 603.211 -32.6847 608.949 -33.8939 614.829C-23.5209 624.839 -2.31335 647.099 10.9626 673.326C-2.19223 666.749 -23.6121 643.324 -35.8306 629.184C-35.9966 631.476 -36.1003 633.753 -36.1519 636.002C-25.6177 644.342 -10.0228 658.471 -8.26416 670.196C-17.1326 660.093 -28.0362 651.829 -36.0407 646.441C-35.2899 664.208 -31.9612 678.018 -31.9612 678.018L97.3824 676.977C99.4449 674.195 103.821 671.596 107.506 669.761" fill="#405521"/>
<path d="M39.4833 690.333C39.4833 690.333 36.386 660.803 64.0102 660.092C91.6329 659.375 119.494 688.904 119.494 688.904L39.4833 690.333Z" fill="#24394B"/>
<path d="M184.118 498.158C184.118 498.158 719.662 484.932 943.358 512.484C740.599 504.767 184.118 498.158 184.118 498.158Z" fill="white"/>
<path d="M1473.39 618.27C1473.39 618.27 1167.05 609.454 986.334 623.78C1244.19 637.003 1460.17 639.207 1460.17 639.207C1460.17 639.207 1237.5 643.987 1175.8 649.499C1385.16 642.889 1470.09 650.225 1470.09 650.225L1477.8 619.372" fill="white"/>
<path d="M1496.66 807.177C1496.66 807.177 935.612 853.012 933.778 876.848C931.945 900.684 1487.49 853.012 1487.49 853.012L1496.66 807.177Z" fill="#7EAEAA"/>
<path d="M623.919 1014.36C623.919 1014.36 796.266 1023.52 992.448 941.016C928.275 997.858 680.757 1074.86 623.919 1014.36Z" fill="white"/>
<path d="M988.782 713.667C988.782 713.667 1298.64 691.664 1276.64 779.671C1311.48 759.503 1298.64 680.664 988.782 713.667Z" fill="white"/>
<path d="M1300.59 981.528C1289.52 975.732 1265.98 960.222 1261.63 931.488C1261.63 931.488 1258.84 932.054 1254.14 932.604C1258.84 932.054 1261.63 931.488 1261.63 931.488C1265.98 960.222 1289.52 975.732 1300.59 981.528Z" fill="#56534A"/>
<path d="M1345.9 932.062C1345.62 931.172 1345.38 930.258 1345.15 929.318C1345.38 930.257 1345.63 931.172 1345.9 932.062ZM1345.15 929.316C1345.14 929.282 1345.14 929.248 1345.13 929.213C1345.14 929.248 1345.14 929.282 1345.15 929.316ZM1345.13 929.205C1345.12 929.174 1345.11 929.138 1345.1 929.105C1345.11 929.14 1345.12 929.171 1345.13 929.205ZM1345.1 929.095C1345.09 929.063 1345.09 929.034 1345.08 929.001C1345.09 929.03 1345.09 929.066 1345.1 929.095ZM1345.08 928.984C1345.07 928.955 1345.06 928.922 1345.05 928.891C1345.06 928.922 1345.07 928.955 1345.08 928.984ZM1345.05 928.874C1345.04 928.845 1345.04 928.816 1345.03 928.785C1345.04 928.814 1345.04 928.845 1345.05 928.874ZM1345.02 928.763C1345.02 928.735 1345.01 928.705 1345 928.677C1345.01 928.706 1345.02 928.734 1345.02 928.763ZM1345 928.651C1344.99 928.624 1344.99 928.598 1344.98 928.571C1344.99 928.598 1344.99 928.624 1345 928.651ZM1344.97 928.538C1344.97 928.514 1344.96 928.487 1344.96 928.461C1344.96 928.487 1344.97 928.514 1344.97 928.538ZM1344.95 928.427C1344.94 928.401 1344.94 928.381 1344.93 928.355C1344.94 928.381 1344.94 928.401 1344.95 928.427ZM1344.92 928.314C1344.92 928.293 1344.91 928.266 1344.91 928.245C1344.91 928.268 1344.92 928.292 1344.92 928.314ZM1344.9 928.201C1344.9 928.182 1344.89 928.158 1344.89 928.139C1344.89 928.16 1344.9 928.18 1344.9 928.201ZM1344.87 928.084C1344.87 928.066 1344.87 928.048 1344.86 928.031C1344.87 928.048 1344.87 928.067 1344.87 928.084ZM1344.85 927.971C1344.85 927.954 1344.84 927.939 1344.84 927.923C1344.84 927.939 1344.85 927.954 1344.85 927.971ZM1344.83 927.857C1344.83 927.841 1344.82 927.827 1344.82 927.812C1344.82 927.827 1344.83 927.841 1344.83 927.857ZM1344.8 927.738C1344.8 927.73 1344.8 927.716 1344.8 927.706C1344.8 927.716 1344.8 927.73 1344.8 927.738ZM1344.78 927.624C1344.78 927.615 1344.78 927.605 1344.77 927.594C1344.78 927.603 1344.78 927.615 1344.78 927.624ZM1344.75 927.505C1344.75 927.5 1344.75 927.492 1344.75 927.487C1344.75 927.493 1344.75 927.499 1344.75 927.505ZM1344.73 927.389C1344.73 927.385 1344.73 927.38 1344.73 927.375C1344.73 927.38 1344.73 927.385 1344.73 927.389ZM1344.71 927.269V927.267V927.269Z" fill="#56534A"/>
<path d="M1076.49 883.497C1079.44 882.625 1082.29 882.138 1085.01 882.14C1082.29 882.14 1079.44 882.625 1076.49 883.497ZM1085.02 882.14C1085.02 882.14 1085.01 882.14 1085.01 882.14C1085.01 882.14 1085.02 882.14 1085.02 882.14Z" fill="#665E54"/>
<path d="M1033.48 911.425C1033.57 911.353 1033.66 911.28 1033.74 911.208C1033.66 911.28 1033.57 911.353 1033.48 911.425ZM1033.89 911.086C1047.03 900.045 1062.75 887.562 1076.49 883.497C1062.76 887.564 1047.03 900.046 1033.89 911.086Z" fill="#341A15"/>
<path d="M1173.9 943.459C1176.05 936.387 1177.32 927.903 1177.94 917.156C1177.99 917.199 1178.05 917.24 1178.1 917.281C1178.05 917.24 1177.99 917.199 1177.94 917.156C1177.32 927.903 1176.05 936.387 1173.9 943.459ZM1236.42 933.632C1236.38 933.632 1236.34 933.63 1236.31 933.63C1236.34 933.63 1236.38 933.632 1236.42 933.632ZM1236.43 933.632C1243.53 933.63 1249.69 933.125 1254.14 932.604C1249.69 933.125 1243.54 933.63 1236.43 933.632ZM1178.72 917.74C1178.64 917.68 1178.56 917.618 1178.47 917.557C1178.56 917.618 1178.64 917.68 1178.72 917.74ZM1178.46 917.545C1178.38 917.487 1178.3 917.428 1178.22 917.37C1178.3 917.428 1178.38 917.487 1178.46 917.545Z" fill="#341A15"/>
</svg>
