<svg width="65" height="65" viewBox="0 0 65 65" fill="none" xmlns="http://www.w3.org/2000/svg">
<circle cx="32.5" cy="32.5" r="32.5" fill="#F3F3F3"/>
<path d="M20 30C18.8954 30 18 30.8954 18 32C18 33.1046 18.8954 34 20 34L20 30ZM47.4142 33.4142C48.1953 32.6332 48.1953 31.3668 47.4142 30.5858L34.6863 17.8579C33.9052 17.0768 32.6389 17.0768 31.8579 17.8579C31.0768 18.6389 31.0768 19.9052 31.8579 20.6863L43.1716 32L31.8579 43.3137C31.0768 44.0948 31.0768 45.3611 31.8579 46.1421C32.6389 46.9232 33.9052 46.9232 34.6863 46.1421L47.4142 33.4142ZM20 34L46 34L46 30L20 30L20 34Z" fill="#24394B"/>
</svg>
