<svg width="21" height="30" viewBox="0 0 21 30" fill="none" xmlns="http://www.w3.org/2000/svg">
<path d="M10.4117 0C6.30876 0 2.5588 2.92649 2.5588 8.94116V12.2794C0.852892 12.5147 0 13.6177 0 15.7059V26.5147C0 28.9118 1.10293 30 3.30879 30H17.5146C19.7205 30 20.8234 28.9118 20.8234 26.5147V15.7059C20.8234 13.6177 19.9705 12.5147 18.2646 12.2794V8.94116C18.2646 2.92649 14.5146 0 10.4117 0ZM4.92642 8.61764C4.92642 4.51475 7.36758 2.26478 10.4117 2.26478C13.4411 2.26478 15.897 4.51475 15.897 8.61764V12.2206H4.92642V8.61764ZM17.4411 14.4412C18.1323 14.4412 18.4558 14.7353 18.4558 15.5441V26.6617C18.4558 27.4852 18.1323 27.7941 17.4411 27.7941H3.38227C2.70581 27.7941 2.36762 27.4852 2.36762 26.6617V15.5441C2.36762 14.7353 2.70581 14.4412 3.38227 14.4412H17.4411Z" fill="black"/>
</svg>
