<svg width="53" height="53" viewBox="0 0 53 53" fill="none" xmlns="http://www.w3.org/2000/svg">
<rect width="53" height="53" rx="20" fill="#07636B"/>
<path d="M19.7657 47.3474C16.2471 47.3474 13.3643 44.2034 13.3643 40.3324V36.625C13.3643 35.8799 13.8669 35.262 14.4731 35.262C15.0792 35.262 15.5819 35.8799 15.5819 36.625C15.5819 38.8967 17.3707 40.605 19.7657 40.605C22.1607 40.605 23.9496 38.8967 23.9496 36.625C23.9496 35.8799 24.4522 35.262 25.0584 35.262C25.6645 35.262 26.1672 35.8799 26.1672 36.625V40.3324C26.1672 44.2034 23.2991 47.3474 19.7657 47.3474ZM15.9662 42.1134C16.6167 43.6037 18.0803 44.6214 19.7657 44.6214C21.4511 44.6214 22.9147 43.5855 23.5652 42.1134C22.5155 42.8949 21.2145 43.3492 19.7657 43.3492C18.3169 43.3492 17.0158 42.8949 15.9662 42.1134Z" fill="white"/>
<path d="M19.7657 38.3511C17.3411 38.3511 15.1679 36.988 14.0887 34.8254C13.6156 33.8804 13.3643 32.7718 13.3643 31.645C13.3643 29.7368 14.0443 27.9558 15.2862 26.6291C17.6812 24.0485 21.8059 24.0486 24.2157 26.6111C25.4575 27.9559 26.1524 29.7368 26.1524 31.645C26.1524 32.7718 25.9011 33.8804 25.428 34.8254C24.3635 36.988 22.1903 38.3511 19.7657 38.3511ZM19.7657 27.356C18.6125 27.356 17.5481 27.8285 16.7498 28.6827C15.9958 29.4823 15.5819 30.5364 15.5819 31.645C15.5819 32.2811 15.7149 32.8628 15.981 33.408C16.661 34.7892 18.1099 35.6432 19.7657 35.6432C21.4215 35.6432 22.8703 34.7892 23.5356 33.4262C23.8017 32.8992 23.9348 32.2993 23.9348 31.6632C23.9348 30.5546 23.5209 29.5005 22.7669 28.6827C21.9833 27.8285 20.9188 27.356 19.7657 27.356Z" fill="white"/>
<path d="M19.7657 43.3491C16.114 43.3491 13.3643 40.4595 13.3643 36.643V31.6453C13.3643 27.7743 16.2323 24.6302 19.7657 24.6302C21.4363 24.6302 23.033 25.339 24.2305 26.6112C25.4723 27.956 26.1672 29.737 26.1672 31.6453V36.643C26.1672 40.4595 23.4173 43.3491 19.7657 43.3491ZM19.7657 27.3563C17.4594 27.3563 15.5819 29.2827 15.5819 31.6453V36.643C15.5819 38.9147 17.3707 40.623 19.7657 40.623C22.1607 40.623 23.9496 38.9147 23.9496 36.643V31.6453C23.9496 30.5367 23.5357 29.4826 22.7817 28.6648C21.9834 27.8288 20.9188 27.3563 19.7657 27.3563Z" fill="white"/>
<path d="M37.3151 32.8994C35.0827 32.8994 33.1904 30.8639 33.013 28.2469C32.8947 26.7385 33.3382 25.2665 34.2252 24.1942C34.9644 23.2492 36.0141 22.7222 37.1229 22.7222H40.2128C41.6764 22.7767 42.8 24.1942 42.8 25.9389V29.6827C42.8 31.4273 41.6764 32.8449 40.2571 32.8994H37.3151ZM40.1684 25.4482H37.1377C36.6203 25.4482 36.1472 25.6845 35.8071 26.1206C35.3784 26.6295 35.1714 27.3201 35.2306 28.0107C35.3045 29.2101 36.2507 30.1733 37.3151 30.1733H40.2128C40.405 30.1733 40.5824 29.9553 40.5824 29.6827V25.9389C40.5824 25.6663 40.405 25.4664 40.1684 25.4482Z" fill="white"/>
<path d="M32.8212 44.6212H29.1252C28.5191 44.6212 28.0164 44.0033 28.0164 43.2582C28.0164 42.513 28.5191 41.8951 29.1252 41.8951H32.8212C36.6355 41.8951 39.1044 38.8601 39.1044 34.1714V32.8992H37.3156C35.0832 32.8992 33.1908 30.8638 33.0134 28.2468C32.8951 26.7383 33.3388 25.2663 34.2258 24.194C34.965 23.249 36.0146 22.722 37.1234 22.722H39.0896V21.4498C39.0896 17.1972 37.0644 14.2712 33.7823 13.7987C33.4275 13.726 33.1169 13.726 32.8064 13.726H19.5008C19.146 13.726 18.806 13.7624 18.4659 13.8169C15.2134 14.3258 13.2176 17.2335 13.2176 21.4498V25.0845C13.2176 25.8297 12.7149 26.4476 12.1088 26.4476C11.5027 26.4476 11 25.8297 11 25.0845V21.4498C11 15.8524 13.809 11.7997 18.1703 11.1272C18.5695 11.0545 19.0277 11 19.5008 11H32.8064C33.1612 11 33.6195 11.0182 34.0926 11.109C38.4539 11.7269 41.3073 15.7978 41.3073 21.4498V24.085C41.3073 24.8301 40.8046 25.448 40.1984 25.448H37.1234C36.6059 25.448 36.133 25.6843 35.7929 26.1204C35.3642 26.6293 35.1571 27.3199 35.2162 28.0105C35.2901 29.21 36.2365 30.1732 37.3009 30.1732H40.2132C40.8194 30.1732 41.322 30.7911 41.322 31.5362V34.1714C41.322 40.4231 37.9069 44.6212 32.8212 44.6212Z" fill="white"/>
</svg>
