<svg width="65" height="65" viewBox="0 0 65 65" fill="none" xmlns="http://www.w3.org/2000/svg">
<circle cx="32.5" cy="32.5" r="32.5" transform="matrix(-1 0 0 1 65 0)" fill="#F3F3F3"/>
<path d="M45 30C46.1046 30 47 30.8954 47 32C47 33.1046 46.1046 34 45 34L45 30ZM17.5858 33.4142C16.8047 32.6332 16.8047 31.3668 17.5858 30.5858L30.3137 17.8579C31.0948 17.0768 32.3611 17.0768 33.1421 17.8579C33.9232 18.6389 33.9232 19.9052 33.1421 20.6863L21.8284 32L33.1421 43.3137C33.9232 44.0948 33.9232 45.3611 33.1421 46.1421C32.3611 46.9232 31.0948 46.9232 30.3137 46.1421L17.5858 33.4142ZM45 34L19 34L19 30L45 30L45 34Z" fill="#24394B"/>
</svg>
