<svg width="27" height="27" viewBox="0 0 27 27" fill="none" xmlns="http://www.w3.org/2000/svg">
<path d="M20.0926 0C16.5864 0 13.2044 2.41212 13.2044 7.54719V11.3021H2.77265C0.90763 11.3021 0 12.2222 0 14.224V23.4124C0 25.4266 0.90763 26.3343 2.77265 26.3343H14.8332C16.6982 26.3343 17.6059 25.4266 17.6059 23.4124V14.224C17.6059 12.359 16.8226 11.4389 15.2063 11.3269V7.28608C15.2063 3.75492 17.494 1.90231 20.0926 1.90231C22.7036 1.90231 24.9915 3.75492 24.9915 7.28608V10.1458C24.9915 11.0286 25.4267 11.4016 25.9986 11.4016C26.5456 11.4016 26.9932 11.0659 26.9932 10.1831V7.54719C26.9932 2.41212 23.5989 0 20.0926 0ZM14.7462 13.1795C15.3306 13.1795 15.6041 13.4282 15.6041 14.1121V23.5118C15.6041 24.2081 15.3306 24.4692 14.7462 24.4692H2.8597C2.28777 24.4692 2.00178 24.2081 2.00178 23.5118V14.1121C2.00178 13.4282 2.28777 13.1795 2.8597 13.1795H14.7462Z" fill="black"/>
</svg>
